<svg width="186" height="94" viewBox="0 0 186 94" fill="none" xmlns="http://www.w3.org/2000/svg">
<path d="M140.428 0.145217C141.888 0.884825 142.943 1.84848 144.094 3.00287C144.36 3.26834 144.36 3.26834 144.632 3.53918C145.223 4.1299 145.812 4.72318 146.401 5.31649C146.825 5.7416 147.25 6.16655 147.675 6.59136C148.826 7.74348 149.975 8.89784 151.123 10.0527C152.325 11.2605 153.529 12.4664 154.732 13.6725C156.752 15.6973 158.77 17.7234 160.787 19.7505C163.122 22.0961 165.458 24.4398 167.796 26.7824C170.043 29.0348 172.289 31.2883 174.535 33.5423C175.492 34.5024 176.448 35.4621 177.405 36.4216C178.531 37.5501 179.656 38.6795 180.779 39.8097C181.193 40.2251 181.606 40.6402 182.02 41.055C182.584 41.6195 183.146 42.1851 183.708 42.751C184.023 43.0677 184.339 43.3845 184.664 43.7108C185.657 44.7717 185.833 45.4523 185.921 46.8796C185.947 47.1765 185.973 47.4735 186 47.7794C185.219 50.9361 181.399 53.6002 179.144 55.86C178.738 56.2672 178.333 56.6745 177.928 57.0819C176.836 58.1802 175.742 59.2773 174.648 60.374C173.964 61.0599 173.28 61.746 172.597 62.4322C170.21 64.8275 167.823 67.2219 165.435 69.6154C163.21 71.8452 160.987 74.0771 158.765 76.3099C156.855 78.23 154.942 80.1486 153.029 82.0661C151.888 83.2102 150.747 84.3548 149.607 85.5009C148.537 86.5767 147.466 87.6508 146.393 88.7236C145.999 89.1175 145.607 89.5121 145.215 89.9073C144.68 90.4464 144.142 90.9832 143.605 91.5195C143.304 91.8205 143.004 92.1215 142.695 92.4316C141.506 93.4914 140.77 93.8553 139.182 94C137.49 93.8512 136.631 93.3498 135.444 92.1606C134.817 91.0294 134.696 90.0871 134.629 88.7997C135.067 87.3473 135.71 86.4902 136.776 85.4266C137.221 84.978 137.221 84.978 137.675 84.5204C138.001 84.1974 138.328 83.8743 138.664 83.5415C139.01 83.1943 139.357 82.8468 139.703 82.499C140.642 81.5576 141.584 80.6195 142.527 79.6821C143.513 78.7011 144.495 77.717 145.478 76.7333C147.338 74.8717 149.202 73.013 151.066 71.1552C153.189 69.0397 155.308 66.9211 157.428 64.8023C161.787 60.4445 166.15 56.0906 170.515 51.7392C169.985 51.7389 169.985 51.7389 169.444 51.7386C148.503 51.7256 127.563 51.705 106.622 51.6746C104.109 51.6709 101.597 51.6674 99.0838 51.6638C98.8337 51.6635 98.5837 51.6631 98.326 51.6628C90.2187 51.6513 82.1113 51.6446 74.0039 51.6404C65.4376 51.6358 56.8713 51.6259 48.305 51.6104C43.1721 51.6012 38.0393 51.5964 32.9064 51.597C29.3894 51.597 25.8725 51.5917 22.3555 51.5822C20.3246 51.5769 18.2938 51.5739 16.2628 51.5773C14.4047 51.5803 12.5467 51.5766 10.6885 51.5676C10.0152 51.5655 9.34192 51.5659 8.66863 51.569C7.75512 51.5728 6.84209 51.5677 5.92862 51.5604C5.66565 51.5636 5.40268 51.5669 5.13175 51.5702C3.30869 51.542 2.27185 51.0747 0.870634 49.9225C-0.154782 48.3808 -0.09093 47.0095 0.145659 45.1991C0.912658 43.8812 1.63574 43.194 3.04556 42.6558C3.98809 42.5861 4.89146 42.556 5.83375 42.5607C6.11756 42.5592 6.40137 42.5578 6.69378 42.5563C7.65053 42.5523 8.6072 42.5535 9.56395 42.5546C10.2545 42.5528 10.945 42.5506 11.6356 42.5482C13.5376 42.5425 15.4395 42.5412 17.3416 42.5407C19.391 42.5394 21.4404 42.5339 23.4898 42.5289C27.042 42.5208 30.5942 42.5153 34.1464 42.5117C39.2823 42.5064 44.4183 42.4971 49.5542 42.4868C57.8864 42.4703 66.2185 42.457 74.5507 42.4457C82.6459 42.4348 90.7411 42.4223 98.8363 42.4078C99.0858 42.4073 99.3353 42.4069 99.5923 42.4064C102.098 42.4019 104.603 42.3974 107.108 42.3928C128.123 42.3547 149.138 42.3218 170.152 42.2924C169.463 41.5404 168.773 40.7887 168.082 40.0373C167.792 39.7208 167.792 39.7208 167.496 39.3979C165.885 37.6452 164.223 35.9515 162.525 34.283C161.912 33.6769 161.299 33.0707 160.686 32.4645C160.369 32.1519 160.052 31.8394 159.726 31.5173C158.2 30.0106 156.679 28.4987 155.158 26.9873C152.835 24.6796 150.511 22.3736 148.179 20.0756C146.424 18.3467 144.676 16.6112 142.932 14.8717C142.269 14.2129 141.604 13.5564 140.936 12.9023C140.006 11.9895 139.083 11.0691 138.162 10.1466C137.887 9.88038 137.611 9.61417 137.328 9.3399C135.65 7.63834 134.774 6.20506 134.629 3.7786C134.898 2.29106 135.692 1.41619 136.884 0.490105C138.115 -0.168605 139.053 -0.0298982 140.428 0.145217Z" fill="white"/>
</svg>
