<svg width="25" height="24" viewBox="0 0 25 24" fill="none" xmlns="http://www.w3.org/2000/svg">
<path d="M5.97618 2.66785C5.97585 3.37506 5.7102 4.05316 5.23768 4.55298C4.76516 5.05279 4.12447 5.33339 3.45656 5.33304C2.78865 5.33268 2.14822 5.05141 1.67617 4.55109C1.20413 4.05077 0.939119 3.37239 0.939453 2.66519C0.939787 1.95798 1.20543 1.27988 1.67796 0.780063C2.15048 0.280243 2.79116 -0.000353269 3.45908 3.33797e-07C4.12699 0.000353936 4.76741 0.281629 5.23946 0.781948C5.71151 1.28227 5.97651 1.96065 5.97618 2.66785ZM6.05173 7.30759H1.015V24H6.05173V7.30759ZM14.0098 7.30759H8.99822V24H13.9594V15.2405C13.9594 10.3608 19.9657 9.90745 19.9657 15.2405V24H24.9395V13.4273C24.9395 5.20104 16.0496 5.50769 13.9594 9.54747L14.0098 7.30759Z" fill="#2494EA"/>
</svg>
