<svg width="6" height="7" viewBox="0 0 6 7" fill="none" xmlns="http://www.w3.org/2000/svg">
<path d="M3 6.43161L2.68376 6.7158L3 7L3.31624 6.7158L3 6.43161ZM3.44729 0.401975C3.44729 0.295365 3.40017 0.193121 3.31628 0.117736C3.2324 0.0423509 3.11863 0 3 0C2.88137 0 2.7676 0.0423509 2.68372 0.117736C2.59983 0.193121 2.55271 0.295365 2.55271 0.401975H3.44729ZM0 4.30395L2.68376 6.7158L3.31624 6.14741L0.632473 3.73556L0 4.30395ZM3.31624 6.7158L6 4.30395L5.36753 3.73556L2.68376 6.14741L3.31624 6.7158ZM3.44729 6.43161V0.401975H2.55271V6.43161H3.44729Z" fill="white"/>
</svg>
