<svg width="585" height="290" viewBox="0 0 585 290" fill="none" xmlns="http://www.w3.org/2000/svg">
<mask id="mask0_453_2759" style="mask-type:luminance" maskUnits="userSpaceOnUse" x="30" y="46" width="507" height="199">
<path d="M536.649 46.9717H30.4945V244.001H536.649V46.9717Z" fill="white"/>
</mask>
<g mask="url(#mask0_453_2759)">
<path d="M101.926 216.401C106.995 227.249 103.003 235.946 103.003 235.946C103.003 235.946 94.4392 234.825 89.3892 223.977C84.3343 213.103 84.6812 196.631 84.6812 196.631C84.6812 196.631 96.8811 205.536 101.926 216.401Z" fill="white"/>
<path d="M87.319 244.003C90.3912 244.053 93.4284 243.346 96.1623 241.943C98.8962 240.541 101.243 238.487 102.994 235.962C101.251 233.43 98.9126 231.365 96.1839 229.95C93.4551 228.534 90.4201 227.812 87.3462 227.846C76.5438 227.81 63.9115 235.866 63.9115 235.866C63.9115 235.866 76.5166 243.992 87.319 244.003Z" fill="white"/>
<path d="M80.6124 203.148C83.3084 213.62 78.4678 220.362 78.4678 220.362C78.4678 220.362 71.2051 217.62 68.5128 207.16C65.8206 196.699 68.7507 182.427 68.7507 182.427C68.7507 182.427 77.9474 192.672 80.6124 203.148Z" fill="white"/>
<path d="M63.5496 224.131C66.1509 224.826 68.8869 224.846 71.4978 224.187C74.1088 223.528 76.508 222.213 78.4678 220.367C77.3497 217.813 75.6519 215.555 73.509 213.772C71.3662 211.988 68.8373 210.729 66.1229 210.093C56.7441 207.856 44.481 212.266 44.481 212.266C44.481 212.266 54.1522 221.899 63.5496 224.132" fill="white"/>
<path d="M65.6758 184.497C65.9954 194.016 60.6171 198.547 60.6171 198.547C60.6171 198.547 54.9923 194.492 54.6702 184.97C54.3592 175.43 59.5021 164.074 59.5021 164.074C59.5021 164.074 65.3784 174.977 65.6795 184.497" fill="white"/>
<path d="M47.2922 198.138C54.8102 202.307 60.6171 198.563 60.6171 198.563C60.1449 196.104 59.1348 193.78 57.6593 191.757C56.1837 189.735 54.2792 188.063 52.082 186.863C44.5641 182.71 33.3602 183.465 33.3602 183.465C33.3602 183.465 39.7706 193.98 47.2935 198.138" fill="white"/>
<path d="M58.2496 161.152C55.5623 169.546 49.5175 171.337 49.5175 171.337C49.5175 171.337 45.8502 165.539 48.5412 157.138C51.2099 148.744 59.1887 140.938 59.1887 140.938C59.1887 140.938 60.9084 152.754 58.2496 161.152Z" fill="white"/>
<path d="M38.0211 165.642C43.2854 172.273 49.4988 171.341 49.4988 171.341C49.8383 168.94 49.6764 166.494 49.0232 164.159C48.3701 161.823 47.2398 159.649 45.7039 157.772C40.4482 151.139 30.4945 147.307 30.4945 147.307C30.4945 147.307 32.7841 158.99 38.0211 165.643" fill="white"/>
<path d="M56.78 136.563C52.4437 144.015 46.2056 144.168 46.2056 144.168C45.5473 141.817 45.3809 139.355 45.7169 136.936C46.0528 134.517 46.8839 132.194 48.1582 130.111C52.4462 122.644 61.799 117.15 61.799 117.15C61.799 117.15 61.0879 129.104 56.7813 136.563" fill="white"/>
<path d="M36.2098 135.594C39.9601 143.426 46.187 144.17 46.187 144.17C47.0116 141.865 47.3549 139.415 47.1958 136.973C47.0366 134.53 46.3783 132.146 45.2615 129.967C41.5063 122.136 32.5834 115.78 32.5834 115.78C32.5834 115.78 32.4595 127.76 36.2098 135.596" fill="white"/>
<path d="M61.1783 113.946C55.5126 119.159 49.9559 117.282 49.9559 117.282C49.9435 115.06 50.4006 112.86 51.2974 110.827C52.1941 108.794 53.5102 106.973 55.1595 105.484C60.8067 100.26 70.4321 98.4092 70.4321 98.4092C70.4321 98.4092 66.828 108.725 61.1808 113.946" fill="white"/>
<path d="M43.2407 106.486C44.6234 114.631 49.9472 117.265 49.9472 117.265C49.9472 117.265 54.0072 112.57 52.6481 104.423C51.2704 96.2954 44.9567 87.8086 44.9567 87.8086C44.9567 87.8086 41.8593 98.357 43.2407 106.486Z" fill="white"/>
<path d="M89.8649 67.6598C88.5317 67.7357 87.2004 67.4805 85.9898 66.9169C84.7792 66.3533 83.7269 65.4989 82.9268 64.4298C83.6501 63.2959 84.6396 62.3559 85.809 61.6915C86.9785 61.027 88.2925 60.6584 89.6369 60.6176C94.3449 60.4367 99.9561 63.7051 99.9561 63.7051C99.9561 63.7051 94.5778 67.4566 89.8698 67.6598" fill="white"/>
<path d="M83.14 55.8847C82.5206 57.2149 82.1815 58.6583 82.1438 60.1251C82.1061 61.592 82.3705 63.0509 82.9207 64.4111C82.9207 64.4111 86.6475 63.778 88.6967 58.9598C90.767 54.1576 90.3842 46.9717 90.3842 46.9717C90.3842 46.9717 85.1806 51.0689 83.14 55.8847Z" fill="white"/>
<path d="M79.8828 79.1965C78.2168 79.5915 76.4775 79.5547 74.8297 79.0894C73.1819 78.6241 71.6801 77.7458 70.4668 76.5377C71.2093 74.9379 72.3167 73.5347 73.7001 72.4407C75.0835 71.3468 76.7042 70.5926 78.432 70.2388C84.4087 68.9999 92.1274 72.0068 92.1274 72.0068C92.1274 72.0068 85.8682 77.934 79.8828 79.1927" fill="white"/>
<path d="M69.353 65.5722C68.7743 67.3773 68.5746 69.2826 68.7665 71.1685C68.9584 73.0544 69.5377 74.8803 70.468 76.5319C70.468 76.5319 75.1116 74.9213 76.9639 68.3301C78.8161 61.7389 77.146 52.6475 77.146 52.6475C77.146 52.6475 71.1866 58.9797 69.353 65.5722Z" fill="white"/>
<path d="M68.5501 95.2565C66.964 96.2934 65.133 96.8947 63.241 97C61.349 97.1052 59.4626 96.7108 57.7712 95.8562C58.1144 93.858 58.8932 91.9599 60.0522 90.2964C61.2112 88.6329 62.7221 87.2449 64.4777 86.2308C70.5089 82.7283 79.5929 83.1099 79.5929 83.1099C79.5929 83.1099 74.5702 91.7429 68.5538 95.2516" fill="white"/>
<path d="M53.4683 84.5791C53.3444 92.2792 57.7612 95.8535 57.7612 95.8535C57.7612 95.8535 62.2636 92.4576 62.3775 84.7414C62.4915 77.0252 58.1577 67.9375 58.1577 67.9375C58.1577 67.9375 53.586 76.8579 53.4683 84.5853" fill="white"/>
<path d="M99.234 51.7235C97.9358 52.2138 96.766 52.9928 95.813 54.0016C94.86 55.0104 94.1488 56.2226 93.733 57.5466C94.7954 58.3233 96.0413 58.8109 97.3487 58.9616C98.6561 59.1124 99.9802 58.921 101.191 58.4064C105.672 56.7028 109.895 51.3667 109.895 51.3667C109.895 51.3667 103.7 50.0113 99.234 51.7272" fill="white"/>
<path d="M465.191 216.401C460.136 227.249 464.125 235.946 464.125 235.946C464.125 235.946 472.687 234.825 477.753 223.977C482.781 213.103 482.447 196.631 482.447 196.631C482.447 196.631 470.255 205.536 465.191 216.401Z" fill="white"/>
<path d="M479.816 244.003C476.742 244.052 473.703 243.344 470.966 241.941C468.23 240.539 465.88 238.486 464.124 235.962C465.872 233.429 468.215 231.365 470.948 229.949C473.681 228.534 476.72 227.812 479.797 227.846C490.576 227.81 503.214 235.866 503.214 235.866C503.214 235.866 490.614 243.992 479.811 244.003" fill="white"/>
<path d="M486.509 203.148C483.835 213.62 488.667 220.362 488.667 220.362C488.667 220.362 495.92 217.62 498.612 207.16C501.276 196.697 498.364 182.427 498.364 182.427C498.364 182.427 489.181 192.672 486.509 203.148Z" fill="white"/>
<path d="M503.584 224.131C500.983 224.828 498.247 224.849 495.636 224.19C493.025 223.531 490.626 222.215 488.667 220.367C489.782 217.816 491.475 215.559 493.613 213.776C495.751 211.993 498.275 210.732 500.985 210.093C510.372 207.856 522.649 212.266 522.649 212.266C522.649 212.266 512.955 221.899 503.584 224.132" fill="white"/>
<path d="M501.459 184.497C501.139 194.016 506.495 198.547 506.495 198.547C506.495 198.547 512.143 194.492 512.454 184.97C512.755 175.43 507.636 164.074 507.636 164.074C507.636 164.074 501.76 174.977 501.459 184.497Z" fill="white"/>
<path d="M519.844 198.138C512.325 202.307 506.495 198.563 506.495 198.563C506.977 196.105 507.993 193.783 509.472 191.761C510.951 189.739 512.856 188.067 515.053 186.863C522.553 182.709 533.761 183.465 533.761 183.465C533.761 183.465 527.364 193.98 519.846 198.138" fill="white"/>
<path d="M508.894 161.152C511.563 169.546 517.612 171.337 517.612 171.337C517.612 171.337 521.248 165.539 518.589 157.138C515.93 148.736 507.946 140.938 507.946 140.938C507.946 140.938 506.212 152.754 508.895 161.152" fill="white"/>
<path d="M529.09 165.642C523.839 172.273 517.645 171.341 517.645 171.341C517.304 168.943 517.463 166.5 518.111 164.167C518.76 161.833 519.884 159.658 521.412 157.78C526.677 151.144 536.651 147.311 536.651 147.311C536.651 147.311 534.335 158.994 529.094 165.647" fill="white"/>
<path d="M510.359 136.563C514.679 144.015 520.919 144.168 520.919 144.168C521.575 141.817 521.741 139.356 521.408 136.939C521.074 134.521 520.248 132.197 518.98 130.111C514.679 122.644 505.326 117.15 505.326 117.15C505.326 117.15 506.048 129.104 510.359 136.563Z" fill="white"/>
<path d="M530.921 135.593C527.176 143.425 520.945 144.169 520.945 144.169C520.121 141.864 519.778 139.414 519.938 136.971C520.098 134.529 520.758 132.145 521.876 129.967C525.635 122.137 534.558 115.778 534.558 115.778C534.558 115.778 534.682 127.758 530.921 135.594" fill="white"/>
<path d="M505.955 113.946C511.612 119.159 517.178 117.282 517.178 117.282C517.193 115.06 516.737 112.859 515.84 110.825C514.943 108.792 513.626 106.971 511.974 105.484C506.322 100.26 496.695 98.4092 496.695 98.4092C496.695 98.4092 500.298 108.725 505.955 113.946Z" fill="white"/>
<path d="M523.877 106.486C522.503 114.631 517.186 117.265 517.186 117.265C517.186 117.265 513.118 112.57 514.495 104.423C515.868 96.2954 522.177 87.8086 522.177 87.8086C522.177 87.8086 525.257 98.3558 523.879 106.485" fill="white"/>
<path d="M477.263 67.6598C478.598 67.7359 479.931 67.4809 481.144 66.9174C482.357 66.3539 483.411 65.4993 484.214 64.4298C483.487 63.2974 482.496 62.3586 481.325 61.6945C480.155 61.0304 478.84 60.6608 477.495 60.6176C472.787 60.4367 467.181 63.7051 467.181 63.7051C467.181 63.7051 472.553 67.4566 477.263 67.6598Z" fill="white"/>
<path d="M483.986 55.8847C484.608 57.214 484.949 58.6571 484.989 60.1242C485.028 61.5912 484.764 63.0505 484.214 64.4111C484.214 64.4111 480.483 63.778 478.431 58.9598C476.379 54.1415 476.741 46.9717 476.741 46.9717C476.741 46.9717 481.946 51.0689 483.986 55.8847Z" fill="white"/>
<path d="M487.252 79.1965C488.917 79.592 490.655 79.5553 492.301 79.09C493.948 78.6246 495.448 77.746 496.659 76.5377C495.918 74.9369 494.811 73.5328 493.428 72.4386C492.044 71.3445 490.423 70.5909 488.694 70.2388C482.709 68.9999 474.999 72.0068 474.999 72.0068C474.999 72.0068 481.275 77.934 487.252 79.1927" fill="white"/>
<path d="M497.791 65.5722C498.365 67.3783 498.562 69.2833 498.369 71.1688C498.176 73.0543 497.597 74.8799 496.668 76.5319C496.668 76.5319 492.019 74.9213 490.171 68.3301C488.322 61.7389 489.98 52.6475 489.98 52.6475C489.98 52.6475 495.957 58.9797 497.786 65.5722" fill="white"/>
<path d="M498.575 95.2565C500.161 96.2934 501.992 96.8947 503.884 97C505.776 97.1052 507.662 96.7108 509.354 95.8562C509.011 93.8585 508.233 91.9607 507.075 90.2973C505.917 88.6339 504.407 87.2456 502.652 86.2308C496.617 82.7283 487.537 83.1099 487.537 83.1099C487.537 83.1099 492.555 91.7429 498.577 95.2516" fill="white"/>
<path d="M513.675 84.5791C513.767 92.2792 509.364 95.8535 509.364 95.8535C509.364 95.8535 504.87 92.4576 504.751 84.7414C504.632 77.0252 508.963 67.9375 508.963 67.9375C508.963 67.9375 513.548 76.8579 513.671 84.5853" fill="white"/>
<path d="M467.91 51.7235C469.205 52.217 470.372 52.9972 471.323 54.0056C472.274 55.014 472.985 56.2246 473.402 57.5466C472.337 58.3236 471.089 58.8113 469.779 58.962C468.47 59.1127 467.143 58.9212 465.93 58.4064C461.47 56.7028 457.257 51.3667 457.257 51.3667C457.257 51.3667 463.443 50.0113 467.912 51.7272" fill="white"/>
</g>
<path d="M161.84 62.94L156.35 84H150.14L146.78 70.14L143.3 84H137.09L131.75 62.94H137.24L140.27 78.27L144.02 62.94H149.66L153.26 78.27L156.32 62.94H161.84ZM168.793 65.52C167.893 65.52 167.153 65.26 166.573 64.74C166.013 64.2 165.733 63.54 165.733 62.76C165.733 61.96 166.013 61.3 166.573 60.78C167.153 60.24 167.893 59.97 168.793 59.97C169.673 59.97 170.393 60.24 170.953 60.78C171.533 61.3 171.823 61.96 171.823 62.76C171.823 63.54 171.533 64.2 170.953 64.74C170.393 65.26 169.673 65.52 168.793 65.52ZM171.343 67.26V84H166.213V67.26H171.343ZM187.06 67.08C189.02 67.08 190.58 67.72 191.74 69C192.92 70.26 193.51 72 193.51 74.22V84H188.41V74.91C188.41 73.79 188.12 72.92 187.54 72.3C186.96 71.68 186.18 71.37 185.2 71.37C184.22 71.37 183.44 71.68 182.86 72.3C182.28 72.92 181.99 73.79 181.99 74.91V84H176.86V67.26H181.99V69.48C182.51 68.74 183.21 68.16 184.09 67.74C184.97 67.3 185.96 67.08 187.06 67.08ZM209.075 67.08C211.035 67.08 212.595 67.72 213.755 69C214.935 70.26 215.525 72 215.525 74.22V84H210.425V74.91C210.425 73.79 210.135 72.92 209.555 72.3C208.975 71.68 208.195 71.37 207.215 71.37C206.235 71.37 205.455 71.68 204.875 72.3C204.295 72.92 204.005 73.79 204.005 74.91V84H198.875V67.26H204.005V69.48C204.525 68.74 205.225 68.16 206.105 67.74C206.985 67.3 207.975 67.08 209.075 67.08ZM236.67 75.36C236.67 75.84 236.64 76.34 236.58 76.86H224.97C225.05 77.9 225.38 78.7 225.96 79.26C226.56 79.8 227.29 80.07 228.15 80.07C229.43 80.07 230.32 79.53 230.82 78.45H236.28C236 79.55 235.49 80.54 234.75 81.42C234.03 82.3 233.12 82.99 232.02 83.49C230.92 83.99 229.69 84.24 228.33 84.24C226.69 84.24 225.23 83.89 223.95 83.19C222.67 82.49 221.67 81.49 220.95 80.19C220.23 78.89 219.87 77.37 219.87 75.63C219.87 73.89 220.22 72.37 220.92 71.07C221.64 69.77 222.64 68.77 223.92 68.07C225.2 67.37 226.67 67.02 228.33 67.02C229.95 67.02 231.39 67.36 232.65 68.04C233.91 68.72 234.89 69.69 235.59 70.95C236.31 72.21 236.67 73.68 236.67 75.36ZM231.42 74.01C231.42 73.13 231.12 72.43 230.52 71.91C229.92 71.39 229.17 71.13 228.27 71.13C227.41 71.13 226.68 71.38 226.08 71.88C225.5 72.38 225.14 73.09 225 74.01H231.42ZM246.306 70.05C246.906 69.13 247.656 68.41 248.556 67.89C249.456 67.35 250.456 67.08 251.556 67.08V72.51H250.146C248.866 72.51 247.906 72.79 247.266 73.35C246.626 73.89 246.306 74.85 246.306 76.23V84H241.176V67.26H246.306V70.05ZM271.586 84.24C269.946 84.24 268.466 83.89 267.146 83.19C265.846 82.49 264.816 81.49 264.056 80.19C263.316 78.89 262.946 77.37 262.946 75.63C262.946 73.91 263.326 72.4 264.086 71.1C264.846 69.78 265.886 68.77 267.206 68.07C268.526 67.37 270.006 67.02 271.646 67.02C273.286 67.02 274.766 67.37 276.086 68.07C277.406 68.77 278.446 69.78 279.206 71.1C279.966 72.4 280.346 73.91 280.346 75.63C280.346 77.35 279.956 78.87 279.176 80.19C278.416 81.49 277.366 82.49 276.026 83.19C274.706 83.89 273.226 84.24 271.586 84.24ZM271.586 79.8C272.566 79.8 273.396 79.44 274.076 78.72C274.776 78 275.126 76.97 275.126 75.63C275.126 74.29 274.786 73.26 274.106 72.54C273.446 71.82 272.626 71.46 271.646 71.46C270.646 71.46 269.816 71.82 269.156 72.54C268.496 73.24 268.166 74.27 268.166 75.63C268.166 76.97 268.486 78 269.126 78.72C269.786 79.44 270.606 79.8 271.586 79.8ZM293.267 71.52H290.507V84H285.377V71.52H283.517V67.26H285.377V66.78C285.377 64.72 285.967 63.16 287.147 62.1C288.327 61.02 290.057 60.48 292.337 60.48C292.717 60.48 292.997 60.49 293.177 60.51V64.86C292.197 64.8 291.507 64.94 291.107 65.28C290.707 65.62 290.507 66.23 290.507 67.11V67.26H293.267V71.52ZM313.525 62.94C315.745 62.94 317.685 63.38 319.345 64.26C321.005 65.14 322.285 66.38 323.185 67.98C324.105 69.56 324.565 71.39 324.565 73.47C324.565 75.53 324.105 77.36 323.185 78.96C322.285 80.56 320.995 81.8 319.315 82.68C317.655 83.56 315.725 84 313.525 84H305.635V62.94H313.525ZM313.195 79.56C315.135 79.56 316.645 79.03 317.725 77.97C318.805 76.91 319.345 75.41 319.345 73.47C319.345 71.53 318.805 70.02 317.725 68.94C316.645 67.86 315.135 67.32 313.195 67.32H310.765V79.56H313.195ZM345.012 75.36C345.012 75.84 344.982 76.34 344.922 76.86H333.312C333.392 77.9 333.722 78.7 334.302 79.26C334.902 79.8 335.632 80.07 336.492 80.07C337.772 80.07 338.662 79.53 339.162 78.45H344.622C344.342 79.55 343.832 80.54 343.092 81.42C342.372 82.3 341.462 82.99 340.362 83.49C339.262 83.99 338.032 84.24 336.672 84.24C335.032 84.24 333.572 83.89 332.292 83.19C331.012 82.49 330.012 81.49 329.292 80.19C328.572 78.89 328.212 77.37 328.212 75.63C328.212 73.89 328.562 72.37 329.262 71.07C329.982 69.77 330.982 68.77 332.262 68.07C333.542 67.37 335.012 67.02 336.672 67.02C338.292 67.02 339.732 67.36 340.992 68.04C342.252 68.72 343.232 69.69 343.932 70.95C344.652 72.21 345.012 73.68 345.012 75.36ZM339.762 74.01C339.762 73.13 339.462 72.43 338.862 71.91C338.262 71.39 337.512 71.13 336.612 71.13C335.752 71.13 335.022 71.38 334.422 71.88C333.842 72.38 333.482 73.09 333.342 74.01H339.762ZM354.649 61.8V84H349.519V61.8H354.649ZM367.786 84.24C366.146 84.24 364.666 83.89 363.346 83.19C362.046 82.49 361.016 81.49 360.256 80.19C359.516 78.89 359.146 77.37 359.146 75.63C359.146 73.91 359.526 72.4 360.286 71.1C361.046 69.78 362.086 68.77 363.406 68.07C364.726 67.37 366.206 67.02 367.846 67.02C369.486 67.02 370.966 67.37 372.286 68.07C373.606 68.77 374.646 69.78 375.406 71.1C376.166 72.4 376.546 73.91 376.546 75.63C376.546 77.35 376.156 78.87 375.376 80.19C374.616 81.49 373.566 82.49 372.226 83.19C370.906 83.89 369.426 84.24 367.786 84.24ZM367.786 79.8C368.766 79.8 369.596 79.44 370.276 78.72C370.976 78 371.326 76.97 371.326 75.63C371.326 74.29 370.986 73.26 370.306 72.54C369.646 71.82 368.826 71.46 367.846 71.46C366.846 71.46 366.016 71.82 365.356 72.54C364.696 73.24 364.366 74.27 364.366 75.63C364.366 76.97 364.686 78 365.326 78.72C365.986 79.44 366.806 79.8 367.786 79.8ZM383.648 65.52C382.748 65.52 382.008 65.26 381.428 64.74C380.868 64.2 380.588 63.54 380.588 62.76C380.588 61.96 380.868 61.3 381.428 60.78C382.008 60.24 382.748 59.97 383.648 59.97C384.528 59.97 385.248 60.24 385.808 60.78C386.388 61.3 386.678 61.96 386.678 62.76C386.678 63.54 386.388 64.2 385.808 64.74C385.248 65.26 384.528 65.52 383.648 65.52ZM386.198 67.26V84H381.068V67.26H386.198ZM401.045 79.65V84H398.435C396.575 84 395.125 83.55 394.085 82.65C393.045 81.73 392.525 80.24 392.525 78.18V71.52H390.485V67.26H392.525V63.18H397.655V67.26H401.015V71.52H397.655V78.24C397.655 78.74 397.775 79.1 398.015 79.32C398.255 79.54 398.655 79.65 399.215 79.65H401.045ZM415.033 79.65V84H412.423C410.563 84 409.113 83.55 408.073 82.65C407.033 81.73 406.513 80.24 406.513 78.18V71.52H404.473V67.26H406.513V63.18H411.643V67.26H415.003V71.52H411.643V78.24C411.643 78.74 411.763 79.1 412.003 79.32C412.243 79.54 412.643 79.65 413.203 79.65H415.033ZM435.47 75.36C435.47 75.84 435.44 76.34 435.38 76.86H423.77C423.85 77.9 424.18 78.7 424.76 79.26C425.36 79.8 426.09 80.07 426.95 80.07C428.23 80.07 429.12 79.53 429.62 78.45H435.08C434.8 79.55 434.29 80.54 433.55 81.42C432.83 82.3 431.92 82.99 430.82 83.49C429.72 83.99 428.49 84.24 427.13 84.24C425.49 84.24 424.03 83.89 422.75 83.19C421.47 82.49 420.47 81.49 419.75 80.19C419.03 78.89 418.67 77.37 418.67 75.63C418.67 73.89 419.02 72.37 419.72 71.07C420.44 69.77 421.44 68.77 422.72 68.07C424 67.37 425.47 67.02 427.13 67.02C428.75 67.02 430.19 67.36 431.45 68.04C432.71 68.72 433.69 69.69 434.39 70.95C435.11 72.21 435.47 73.68 435.47 75.36ZM430.22 74.01C430.22 73.13 429.92 72.43 429.32 71.91C428.72 71.39 427.97 71.13 427.07 71.13C426.21 71.13 425.48 71.38 424.88 71.88C424.3 72.38 423.94 73.09 423.8 74.01H430.22Z" fill="white"/>
<path d="M200.638 104.969V106.671H196.268V121H194.175V106.671H189.782V104.969H200.638ZM214.714 114.215C214.714 114.614 214.691 115.035 214.645 115.48H204.571C204.648 116.722 205.07 117.696 205.836 118.401C206.618 119.091 207.561 119.436 208.665 119.436C209.57 119.436 210.321 119.229 210.919 118.815C211.533 118.386 211.962 117.818 212.207 117.113H214.461C214.124 118.324 213.449 119.313 212.437 120.08C211.425 120.831 210.168 121.207 208.665 121.207C207.469 121.207 206.396 120.939 205.445 120.402C204.51 119.865 203.774 119.106 203.237 118.125C202.701 117.128 202.432 115.978 202.432 114.675C202.432 113.372 202.693 112.229 203.214 111.248C203.736 110.267 204.464 109.515 205.399 108.994C206.35 108.457 207.439 108.189 208.665 108.189C209.861 108.189 210.919 108.45 211.839 108.971C212.759 109.492 213.465 110.213 213.955 111.133C214.461 112.038 214.714 113.065 214.714 114.215ZM212.552 113.778C212.552 112.981 212.376 112.298 212.023 111.731C211.671 111.148 211.188 110.711 210.574 110.42C209.976 110.113 209.309 109.96 208.573 109.96C207.515 109.96 206.611 110.297 205.859 110.972C205.123 111.647 204.702 112.582 204.594 113.778H212.552ZM216.695 114.675C216.695 113.372 216.956 112.237 217.477 111.271C217.998 110.29 218.719 109.531 219.639 108.994C220.574 108.457 221.64 108.189 222.836 108.189C224.385 108.189 225.657 108.565 226.654 109.316C227.666 110.067 228.333 111.11 228.655 112.444H226.401C226.186 111.677 225.765 111.072 225.136 110.627C224.523 110.182 223.756 109.96 222.836 109.96C221.64 109.96 220.674 110.374 219.938 111.202C219.202 112.015 218.834 113.172 218.834 114.675C218.834 116.193 219.202 117.366 219.938 118.194C220.674 119.022 221.64 119.436 222.836 119.436C223.756 119.436 224.523 119.221 225.136 118.792C225.749 118.363 226.171 117.749 226.401 116.952H228.655C228.318 118.24 227.643 119.275 226.631 120.057C225.619 120.824 224.354 121.207 222.836 121.207C221.64 121.207 220.574 120.939 219.639 120.402C218.719 119.865 217.998 119.106 217.477 118.125C216.956 117.144 216.695 115.994 216.695 114.675ZM237.704 108.166C238.654 108.166 239.513 108.373 240.28 108.787C241.046 109.186 241.644 109.791 242.074 110.604C242.518 111.417 242.741 112.406 242.741 113.571V121H240.671V113.87C240.671 112.613 240.356 111.654 239.728 110.995C239.099 110.32 238.24 109.983 237.152 109.983C236.048 109.983 235.166 110.328 234.507 111.018C233.863 111.708 233.541 112.712 233.541 114.031V121H231.448V103.98H233.541V110.19C233.955 109.546 234.522 109.048 235.243 108.695C235.979 108.342 236.799 108.166 237.704 108.166ZM252.301 108.166C253.834 108.166 255.076 108.634 256.027 109.569C256.977 110.489 257.453 111.823 257.453 113.571V121H255.383V113.87C255.383 112.613 255.068 111.654 254.44 110.995C253.811 110.32 252.952 109.983 251.864 109.983C250.76 109.983 249.878 110.328 249.219 111.018C248.575 111.708 248.253 112.712 248.253 114.031V121H246.16V108.396H248.253V110.19C248.667 109.546 249.226 109.048 249.932 108.695C250.652 108.342 251.442 108.166 252.301 108.166ZM266.369 121.207C265.188 121.207 264.115 120.939 263.149 120.402C262.198 119.865 261.447 119.106 260.895 118.125C260.358 117.128 260.09 115.978 260.09 114.675C260.09 113.387 260.366 112.252 260.918 111.271C261.485 110.274 262.252 109.515 263.218 108.994C264.184 108.457 265.265 108.189 266.461 108.189C267.657 108.189 268.738 108.457 269.704 108.994C270.67 109.515 271.429 110.267 271.981 111.248C272.548 112.229 272.832 113.372 272.832 114.675C272.832 115.978 272.54 117.128 271.958 118.125C271.39 119.106 270.616 119.865 269.635 120.402C268.653 120.939 267.565 121.207 266.369 121.207ZM266.369 119.367C267.12 119.367 267.825 119.191 268.485 118.838C269.144 118.485 269.673 117.956 270.072 117.251C270.486 116.546 270.693 115.687 270.693 114.675C270.693 113.663 270.493 112.804 270.095 112.099C269.696 111.394 269.175 110.872 268.531 110.535C267.887 110.182 267.189 110.006 266.438 110.006C265.671 110.006 264.966 110.182 264.322 110.535C263.693 110.872 263.187 111.394 262.804 112.099C262.42 112.804 262.229 113.663 262.229 114.675C262.229 115.702 262.413 116.569 262.781 117.274C263.164 117.979 263.67 118.508 264.299 118.861C264.927 119.198 265.617 119.367 266.369 119.367ZM277.677 103.98V121H275.584V103.98H277.677ZM286.741 121.207C285.56 121.207 284.487 120.939 283.521 120.402C282.57 119.865 281.819 119.106 281.267 118.125C280.73 117.128 280.462 115.978 280.462 114.675C280.462 113.387 280.738 112.252 281.29 111.271C281.857 110.274 282.624 109.515 283.59 108.994C284.556 108.457 285.637 108.189 286.833 108.189C288.029 108.189 289.11 108.457 290.076 108.994C291.042 109.515 291.801 110.267 292.353 111.248C292.92 112.229 293.204 113.372 293.204 114.675C293.204 115.978 292.912 117.128 292.33 118.125C291.762 119.106 290.988 119.865 290.007 120.402C289.025 120.939 287.937 121.207 286.741 121.207ZM286.741 119.367C287.492 119.367 288.197 119.191 288.857 118.838C289.516 118.485 290.045 117.956 290.444 117.251C290.858 116.546 291.065 115.687 291.065 114.675C291.065 113.663 290.865 112.804 290.467 112.099C290.068 111.394 289.547 110.872 288.903 110.535C288.259 110.182 287.561 110.006 286.81 110.006C286.043 110.006 285.338 110.182 284.694 110.535C284.065 110.872 283.559 111.394 283.176 112.099C282.792 112.804 282.601 113.663 282.601 114.675C282.601 115.702 282.785 116.569 283.153 117.274C283.536 117.979 284.042 118.508 284.671 118.861C285.299 119.198 285.989 119.367 286.741 119.367ZM301.154 108.189C302.242 108.189 303.193 108.427 304.006 108.902C304.834 109.377 305.447 109.975 305.846 110.696V108.396H307.962V121.276C307.962 122.426 307.716 123.446 307.226 124.335C306.735 125.24 306.03 125.945 305.11 126.451C304.205 126.957 303.147 127.21 301.936 127.21C300.28 127.21 298.9 126.819 297.796 126.037C296.692 125.255 296.04 124.189 295.841 122.84H297.911C298.141 123.607 298.616 124.22 299.337 124.68C300.057 125.155 300.924 125.393 301.936 125.393C303.086 125.393 304.021 125.033 304.742 124.312C305.478 123.591 305.846 122.579 305.846 121.276V118.631C305.432 119.367 304.818 119.98 304.006 120.471C303.193 120.962 302.242 121.207 301.154 121.207C300.034 121.207 299.015 120.931 298.095 120.379C297.19 119.827 296.477 119.053 295.956 118.056C295.434 117.059 295.174 115.925 295.174 114.652C295.174 113.364 295.434 112.237 295.956 111.271C296.477 110.29 297.19 109.531 298.095 108.994C299.015 108.457 300.034 108.189 301.154 108.189ZM305.846 114.675C305.846 113.724 305.654 112.896 305.271 112.191C304.887 111.486 304.366 110.949 303.707 110.581C303.063 110.198 302.35 110.006 301.568 110.006C300.786 110.006 300.073 110.19 299.429 110.558C298.785 110.926 298.271 111.463 297.888 112.168C297.504 112.873 297.313 113.701 297.313 114.652C297.313 115.618 297.504 116.461 297.888 117.182C298.271 117.887 298.785 118.432 299.429 118.815C300.073 119.183 300.786 119.367 301.568 119.367C302.35 119.367 303.063 119.183 303.707 118.815C304.366 118.432 304.887 117.887 305.271 117.182C305.654 116.461 305.846 115.626 305.846 114.675ZM322.355 108.396L314.765 126.934H312.603L315.087 120.862L310.004 108.396H312.327L316.283 118.608L320.193 108.396H322.355ZM339.652 104.969V106.671H332.683V112.076H338.341V113.778H332.683V121H330.59V104.969H339.652ZM341.398 114.652C341.398 113.364 341.659 112.237 342.18 111.271C342.702 110.29 343.415 109.531 344.319 108.994C345.239 108.457 346.259 108.189 347.378 108.189C348.482 108.189 349.441 108.427 350.253 108.902C351.066 109.377 351.672 109.975 352.07 110.696V108.396H354.186V121H352.07V118.654C351.656 119.39 351.035 120.003 350.207 120.494C349.395 120.969 348.444 121.207 347.355 121.207C346.236 121.207 345.224 120.931 344.319 120.379C343.415 119.827 342.702 119.053 342.18 118.056C341.659 117.059 341.398 115.925 341.398 114.652ZM352.07 114.675C352.07 113.724 351.879 112.896 351.495 112.191C351.112 111.486 350.591 110.949 349.931 110.581C349.287 110.198 348.574 110.006 347.792 110.006C347.01 110.006 346.297 110.19 345.653 110.558C345.009 110.926 344.496 111.463 344.112 112.168C343.729 112.873 343.537 113.701 343.537 114.652C343.537 115.618 343.729 116.461 344.112 117.182C344.496 117.887 345.009 118.432 345.653 118.815C346.297 119.183 347.01 119.367 347.792 119.367C348.574 119.367 349.287 119.183 349.931 118.815C350.591 118.432 351.112 117.887 351.495 117.182C351.879 116.461 352.07 115.626 352.07 114.675ZM362.185 121.207C361.219 121.207 360.353 121.046 359.586 120.724C358.819 120.387 358.214 119.927 357.769 119.344C357.324 118.746 357.079 118.064 357.033 117.297H359.195C359.256 117.926 359.548 118.439 360.069 118.838C360.606 119.237 361.303 119.436 362.162 119.436C362.959 119.436 363.588 119.26 364.048 118.907C364.508 118.554 364.738 118.11 364.738 117.573C364.738 117.021 364.493 116.615 364.002 116.354C363.511 116.078 362.752 115.81 361.725 115.549C360.79 115.304 360.023 115.058 359.425 114.813C358.842 114.552 358.336 114.177 357.907 113.686C357.493 113.18 357.286 112.521 357.286 111.708C357.286 111.064 357.478 110.474 357.861 109.937C358.244 109.4 358.789 108.979 359.494 108.672C360.199 108.35 361.004 108.189 361.909 108.189C363.304 108.189 364.431 108.542 365.29 109.247C366.149 109.952 366.609 110.918 366.67 112.145H364.577C364.531 111.486 364.263 110.957 363.772 110.558C363.297 110.159 362.653 109.96 361.84 109.96C361.089 109.96 360.491 110.121 360.046 110.443C359.601 110.765 359.379 111.187 359.379 111.708C359.379 112.122 359.509 112.467 359.77 112.743C360.046 113.004 360.383 113.218 360.782 113.387C361.196 113.54 361.763 113.717 362.484 113.916C363.389 114.161 364.125 114.407 364.692 114.652C365.259 114.882 365.742 115.235 366.141 115.71C366.555 116.185 366.77 116.806 366.785 117.573C366.785 118.263 366.593 118.884 366.21 119.436C365.827 119.988 365.282 120.425 364.577 120.747C363.887 121.054 363.09 121.207 362.185 121.207ZM372.293 110.121V117.55C372.293 118.163 372.423 118.6 372.684 118.861C372.944 119.106 373.397 119.229 374.041 119.229H375.582V121H373.696C372.53 121 371.656 120.732 371.074 120.195C370.491 119.658 370.2 118.777 370.2 117.55V110.121H368.567V108.396H370.2V105.222H372.293V108.396H375.582V110.121H372.293Z" fill="white"/>
<path d="M203.95 164.95H188.35V171.85C189.017 171.117 189.95 170.517 191.15 170.05C192.35 169.583 193.65 169.35 195.05 169.35C197.55 169.35 199.617 169.917 201.25 171.05C202.917 172.183 204.133 173.65 204.9 175.45C205.667 177.25 206.05 179.2 206.05 181.3C206.05 185.2 204.95 188.3 202.75 190.6C200.55 192.867 197.45 194 193.45 194C190.783 194 188.467 193.55 186.5 192.65C184.533 191.717 183.017 190.433 181.95 188.8C180.883 187.167 180.3 185.283 180.2 183.15H188.55C188.75 184.183 189.233 185.05 190 185.75C190.767 186.417 191.817 186.75 193.15 186.75C194.717 186.75 195.883 186.25 196.65 185.25C197.417 184.25 197.8 182.917 197.8 181.25C197.8 179.617 197.4 178.367 196.6 177.5C195.8 176.633 194.633 176.2 193.1 176.2C191.967 176.2 191.033 176.483 190.3 177.05C189.567 177.583 189.083 178.3 188.85 179.2H180.6V157.45H203.95V164.95ZM213.77 175.25C213.77 169.517 214.87 165 217.07 161.7C219.303 158.4 222.886 156.75 227.82 156.75C232.753 156.75 236.32 158.4 238.52 161.7C240.753 165 241.87 169.517 241.87 175.25C241.87 181.05 240.753 185.6 238.52 188.9C236.32 192.2 232.753 193.85 227.82 193.85C222.886 193.85 219.303 192.2 217.07 188.9C214.87 185.6 213.77 181.05 213.77 175.25ZM233.47 175.25C233.47 171.883 233.103 169.3 232.37 167.5C231.636 165.667 230.12 164.75 227.82 164.75C225.52 164.75 224.003 165.667 223.27 167.5C222.536 169.3 222.17 171.883 222.17 175.25C222.17 177.517 222.303 179.4 222.57 180.9C222.836 182.367 223.37 183.567 224.17 184.5C225.003 185.4 226.22 185.85 227.82 185.85C229.42 185.85 230.62 185.4 231.42 184.5C232.253 183.567 232.803 182.367 233.07 180.9C233.336 179.4 233.47 177.517 233.47 175.25ZM249.387 175.25C249.387 169.517 250.487 165 252.687 161.7C254.92 158.4 258.503 156.75 263.437 156.75C268.37 156.75 271.937 158.4 274.137 161.7C276.37 165 277.487 169.517 277.487 175.25C277.487 181.05 276.37 185.6 274.137 188.9C271.937 192.2 268.37 193.85 263.437 193.85C258.503 193.85 254.92 192.2 252.687 188.9C250.487 185.6 249.387 181.05 249.387 175.25ZM269.087 175.25C269.087 171.883 268.72 169.3 267.987 167.5C267.253 165.667 265.737 164.75 263.437 164.75C261.137 164.75 259.62 165.667 258.887 167.5C258.153 169.3 257.787 171.883 257.787 175.25C257.787 177.517 257.92 179.4 258.187 180.9C258.453 182.367 258.987 183.567 259.787 184.5C260.62 185.4 261.837 185.85 263.437 185.85C265.037 185.85 266.237 185.4 267.037 184.5C267.87 183.567 268.42 182.367 268.687 180.9C268.953 179.4 269.087 177.517 269.087 175.25Z" fill="white"/>
<path d="M173.247 226.435H166.255L164.967 230H162.759L168.555 214.061H170.97L176.743 230H174.535L173.247 226.435ZM172.649 224.733L169.751 216.637L166.853 224.733H172.649ZM183.731 230.207C182.765 230.207 181.899 230.046 181.132 229.724C180.365 229.387 179.76 228.927 179.315 228.344C178.87 227.746 178.625 227.064 178.579 226.297H180.741C180.802 226.926 181.094 227.439 181.615 227.838C182.152 228.237 182.849 228.436 183.708 228.436C184.505 228.436 185.134 228.26 185.594 227.907C186.054 227.554 186.284 227.11 186.284 226.573C186.284 226.021 186.039 225.615 185.548 225.354C185.057 225.078 184.298 224.81 183.271 224.549C182.336 224.304 181.569 224.058 180.971 223.813C180.388 223.552 179.882 223.177 179.453 222.686C179.039 222.18 178.832 221.521 178.832 220.708C178.832 220.064 179.024 219.474 179.407 218.937C179.79 218.4 180.335 217.979 181.04 217.672C181.745 217.35 182.55 217.189 183.455 217.189C184.85 217.189 185.977 217.542 186.836 218.247C187.695 218.952 188.155 219.918 188.216 221.145H186.123C186.077 220.486 185.809 219.957 185.318 219.558C184.843 219.159 184.199 218.96 183.386 218.96C182.635 218.96 182.037 219.121 181.592 219.443C181.147 219.765 180.925 220.187 180.925 220.708C180.925 221.122 181.055 221.467 181.316 221.743C181.592 222.004 181.929 222.218 182.328 222.387C182.742 222.54 183.309 222.717 184.03 222.916C184.935 223.161 185.671 223.407 186.238 223.652C186.805 223.882 187.288 224.235 187.687 224.71C188.101 225.185 188.316 225.806 188.331 226.573C188.331 227.263 188.139 227.884 187.756 228.436C187.373 228.988 186.828 229.425 186.123 229.747C185.433 230.054 184.636 230.207 183.731 230.207ZM192.367 215.349C191.968 215.349 191.631 215.211 191.355 214.935C191.079 214.659 190.941 214.322 190.941 213.923C190.941 213.524 191.079 213.187 191.355 212.911C191.631 212.635 191.968 212.497 192.367 212.497C192.75 212.497 193.072 212.635 193.333 212.911C193.609 213.187 193.747 213.524 193.747 213.923C193.747 214.322 193.609 214.659 193.333 214.935C193.072 215.211 192.75 215.349 192.367 215.349ZM193.379 217.396V230H191.286V217.396H193.379ZM196.164 223.652C196.164 222.364 196.424 221.237 196.946 220.271C197.467 219.29 198.18 218.531 199.085 217.994C200.005 217.457 201.024 217.189 202.144 217.189C203.248 217.189 204.206 217.427 205.019 217.902C205.831 218.377 206.437 218.975 206.836 219.696V217.396H208.952V230H206.836V227.654C206.422 228.39 205.801 229.003 204.973 229.494C204.16 229.969 203.209 230.207 202.121 230.207C201.001 230.207 199.989 229.931 199.085 229.379C198.18 228.827 197.467 228.053 196.946 227.056C196.424 226.059 196.164 224.925 196.164 223.652ZM206.836 223.675C206.836 222.724 206.644 221.896 206.261 221.191C205.877 220.486 205.356 219.949 204.697 219.581C204.053 219.198 203.34 219.006 202.558 219.006C201.776 219.006 201.063 219.19 200.419 219.558C199.775 219.926 199.261 220.463 198.878 221.168C198.494 221.873 198.303 222.701 198.303 223.652C198.303 224.618 198.494 225.461 198.878 226.182C199.261 226.887 199.775 227.432 200.419 227.815C201.063 228.183 201.776 228.367 202.558 228.367C203.34 228.367 204.053 228.183 204.697 227.815C205.356 227.432 205.877 226.887 206.261 226.182C206.644 225.461 206.836 224.626 206.836 223.675ZM229.339 218.661C229.339 219.995 228.879 221.107 227.959 221.996C227.054 222.87 225.666 223.307 223.796 223.307H220.714V230H218.621V213.969H223.796C225.605 213.969 226.977 214.406 227.913 215.28C228.863 216.154 229.339 217.281 229.339 218.661ZM223.796 221.582C224.961 221.582 225.82 221.329 226.372 220.823C226.924 220.317 227.2 219.596 227.2 218.661C227.2 216.683 226.065 215.694 223.796 215.694H220.714V221.582H223.796ZM231.158 223.652C231.158 222.364 231.419 221.237 231.94 220.271C232.461 219.29 233.174 218.531 234.079 217.994C234.999 217.457 236.019 217.189 237.138 217.189C238.242 217.189 239.2 217.427 240.013 217.902C240.826 218.377 241.431 218.975 241.83 219.696V217.396H243.946V230H241.83V227.654C241.416 228.39 240.795 229.003 239.967 229.494C239.154 229.969 238.204 230.207 237.115 230.207C235.996 230.207 234.984 229.931 234.079 229.379C233.174 228.827 232.461 228.053 231.94 227.056C231.419 226.059 231.158 224.925 231.158 223.652ZM241.83 223.675C241.83 222.724 241.638 221.896 241.255 221.191C240.872 220.486 240.35 219.949 239.691 219.581C239.047 219.198 238.334 219.006 237.552 219.006C236.77 219.006 236.057 219.19 235.413 219.558C234.769 219.926 234.255 220.463 233.872 221.168C233.489 221.873 233.297 222.701 233.297 223.652C233.297 224.618 233.489 225.461 233.872 226.182C234.255 226.887 234.769 227.432 235.413 227.815C236.057 228.183 236.77 228.367 237.552 228.367C238.334 228.367 239.047 228.183 239.691 227.815C240.35 227.432 240.872 226.887 241.255 226.182C241.638 225.461 241.83 224.626 241.83 223.675ZM246.701 223.675C246.701 222.372 246.962 221.237 247.483 220.271C248.004 219.29 248.725 218.531 249.645 217.994C250.58 217.457 251.646 217.189 252.842 217.189C254.391 217.189 255.663 217.565 256.66 218.316C257.672 219.067 258.339 220.11 258.661 221.444H256.407C256.192 220.677 255.771 220.072 255.142 219.627C254.529 219.182 253.762 218.96 252.842 218.96C251.646 218.96 250.68 219.374 249.944 220.202C249.208 221.015 248.84 222.172 248.84 223.675C248.84 225.193 249.208 226.366 249.944 227.194C250.68 228.022 251.646 228.436 252.842 228.436C253.762 228.436 254.529 228.221 255.142 227.792C255.755 227.363 256.177 226.749 256.407 225.952H258.661C258.324 227.24 257.649 228.275 256.637 229.057C255.625 229.824 254.36 230.207 252.842 230.207C251.646 230.207 250.58 229.939 249.645 229.402C248.725 228.865 248.004 228.106 247.483 227.125C246.962 226.144 246.701 224.994 246.701 223.675ZM262.535 215.349C262.136 215.349 261.799 215.211 261.523 214.935C261.247 214.659 261.109 214.322 261.109 213.923C261.109 213.524 261.247 213.187 261.523 212.911C261.799 212.635 262.136 212.497 262.535 212.497C262.918 212.497 263.24 212.635 263.501 212.911C263.777 213.187 263.915 213.524 263.915 213.923C263.915 214.322 263.777 214.659 263.501 214.935C263.24 215.211 262.918 215.349 262.535 215.349ZM263.547 217.396V230H261.454V217.396H263.547ZM272.243 219.121H269.598V230H267.505V219.121H265.872V217.396H267.505V216.499C267.505 215.088 267.865 214.061 268.586 213.417C269.322 212.758 270.495 212.428 272.105 212.428V214.176C271.185 214.176 270.533 214.36 270.15 214.728C269.782 215.081 269.598 215.671 269.598 216.499V217.396H272.243V219.121ZM275.764 215.349C275.365 215.349 275.028 215.211 274.752 214.935C274.476 214.659 274.338 214.322 274.338 213.923C274.338 213.524 274.476 213.187 274.752 212.911C275.028 212.635 275.365 212.497 275.764 212.497C276.147 212.497 276.469 212.635 276.73 212.911C277.006 213.187 277.144 213.524 277.144 213.923C277.144 214.322 277.006 214.659 276.73 214.935C276.469 215.211 276.147 215.349 275.764 215.349ZM276.776 217.396V230H274.683V217.396H276.776ZM279.561 223.675C279.561 222.372 279.822 221.237 280.343 220.271C280.865 219.29 281.585 218.531 282.505 217.994C283.441 217.457 284.506 217.189 285.702 217.189C287.251 217.189 288.524 217.565 289.52 218.316C290.532 219.067 291.199 220.11 291.521 221.444H289.267C289.053 220.677 288.631 220.072 288.002 219.627C287.389 219.182 286.622 218.96 285.702 218.96C284.506 218.96 283.54 219.374 282.804 220.202C282.068 221.015 281.7 222.172 281.7 223.675C281.7 225.193 282.068 226.366 282.804 227.194C283.54 228.022 284.506 228.436 285.702 228.436C286.622 228.436 287.389 228.221 288.002 227.792C288.616 227.363 289.037 226.749 289.267 225.952H291.521C291.184 227.24 290.509 228.275 289.497 229.057C288.485 229.824 287.22 230.207 285.702 230.207C284.506 230.207 283.441 229.939 282.505 229.402C281.585 228.865 280.865 228.106 280.343 227.125C279.822 226.144 279.561 224.994 279.561 223.675Z" fill="white"/>
<path d="M365.95 164.95H350.35V171.85C351.017 171.117 351.95 170.517 353.15 170.05C354.35 169.583 355.65 169.35 357.05 169.35C359.55 169.35 361.617 169.917 363.25 171.05C364.917 172.183 366.133 173.65 366.9 175.45C367.667 177.25 368.05 179.2 368.05 181.3C368.05 185.2 366.95 188.3 364.75 190.6C362.55 192.867 359.45 194 355.45 194C352.783 194 350.467 193.55 348.5 192.65C346.533 191.717 345.017 190.433 343.95 188.8C342.883 187.167 342.3 185.283 342.2 183.15H350.55C350.75 184.183 351.233 185.05 352 185.75C352.767 186.417 353.817 186.75 355.15 186.75C356.717 186.75 357.883 186.25 358.65 185.25C359.417 184.25 359.8 182.917 359.8 181.25C359.8 179.617 359.4 178.367 358.6 177.5C357.8 176.633 356.633 176.2 355.1 176.2C353.967 176.2 353.033 176.483 352.3 177.05C351.567 177.583 351.083 178.3 350.85 179.2H342.6V157.45H365.95V164.95ZM375.77 175.25C375.77 169.517 376.87 165 379.07 161.7C381.303 158.4 384.886 156.75 389.82 156.75C394.753 156.75 398.32 158.4 400.52 161.7C402.753 165 403.87 169.517 403.87 175.25C403.87 181.05 402.753 185.6 400.52 188.9C398.32 192.2 394.753 193.85 389.82 193.85C384.886 193.85 381.303 192.2 379.07 188.9C376.87 185.6 375.77 181.05 375.77 175.25ZM395.47 175.25C395.47 171.883 395.103 169.3 394.37 167.5C393.636 165.667 392.12 164.75 389.82 164.75C387.52 164.75 386.003 165.667 385.27 167.5C384.536 169.3 384.17 171.883 384.17 175.25C384.17 177.517 384.303 179.4 384.57 180.9C384.836 182.367 385.37 183.567 386.17 184.5C387.003 185.4 388.22 185.85 389.82 185.85C391.42 185.85 392.62 185.4 393.42 184.5C394.253 183.567 394.803 182.367 395.07 180.9C395.336 179.4 395.47 177.517 395.47 175.25Z" fill="white"/>
<path d="M347.864 213.969V230H345.771V213.969H347.864ZM357.572 217.166C359.105 217.166 360.347 217.634 361.298 218.569C362.249 219.489 362.724 220.823 362.724 222.571V230H360.654V222.87C360.654 221.613 360.34 220.654 359.711 219.995C359.082 219.32 358.224 218.983 357.135 218.983C356.031 218.983 355.149 219.328 354.49 220.018C353.846 220.708 353.524 221.712 353.524 223.031V230H351.431V217.396H353.524V219.19C353.938 218.546 354.498 218.048 355.203 217.695C355.924 217.342 356.713 217.166 357.572 217.166ZM365.361 223.652C365.361 222.364 365.622 221.237 366.143 220.271C366.664 219.29 367.377 218.531 368.282 217.994C369.202 217.457 370.229 217.189 371.364 217.189C372.345 217.189 373.258 217.419 374.101 217.879C374.944 218.324 375.588 218.914 376.033 219.65V212.98H378.149V230H376.033V227.631C375.619 228.382 375.006 229.003 374.193 229.494C373.38 229.969 372.43 230.207 371.341 230.207C370.222 230.207 369.202 229.931 368.282 229.379C367.377 228.827 366.664 228.053 366.143 227.056C365.622 226.059 365.361 224.925 365.361 223.652ZM376.033 223.675C376.033 222.724 375.841 221.896 375.458 221.191C375.075 220.486 374.553 219.949 373.894 219.581C373.25 219.198 372.537 219.006 371.755 219.006C370.973 219.006 370.26 219.19 369.616 219.558C368.972 219.926 368.458 220.463 368.075 221.168C367.692 221.873 367.5 222.701 367.5 223.652C367.5 224.618 367.692 225.461 368.075 226.182C368.458 226.887 368.972 227.432 369.616 227.815C370.26 228.183 370.973 228.367 371.755 228.367C372.537 228.367 373.25 228.183 373.894 227.815C374.553 227.432 375.075 226.887 375.458 226.182C375.841 225.461 376.033 224.626 376.033 223.675ZM382.767 215.349C382.368 215.349 382.031 215.211 381.755 214.935C381.479 214.659 381.341 214.322 381.341 213.923C381.341 213.524 381.479 213.187 381.755 212.911C382.031 212.635 382.368 212.497 382.767 212.497C383.15 212.497 383.472 212.635 383.733 212.911C384.009 213.187 384.147 213.524 384.147 213.923C384.147 214.322 384.009 214.659 383.733 214.935C383.472 215.211 383.15 215.349 382.767 215.349ZM383.779 217.396V230H381.686V217.396H383.779ZM386.564 223.652C386.564 222.364 386.825 221.237 387.346 220.271C387.868 219.29 388.581 218.531 389.485 217.994C390.405 217.457 391.425 217.189 392.544 217.189C393.648 217.189 394.607 217.427 395.419 217.902C396.232 218.377 396.838 218.975 397.236 219.696V217.396H399.352V230H397.236V227.654C396.822 228.39 396.201 229.003 395.373 229.494C394.561 229.969 393.61 230.207 392.521 230.207C391.402 230.207 390.39 229.931 389.485 229.379C388.581 228.827 387.868 228.053 387.346 227.056C386.825 226.059 386.564 224.925 386.564 223.652ZM397.236 223.675C397.236 222.724 397.045 221.896 396.661 221.191C396.278 220.486 395.757 219.949 395.097 219.581C394.453 219.198 393.74 219.006 392.958 219.006C392.176 219.006 391.463 219.19 390.819 219.558C390.175 219.926 389.662 220.463 389.278 221.168C388.895 221.873 388.703 222.701 388.703 223.652C388.703 224.618 388.895 225.461 389.278 226.182C389.662 226.887 390.175 227.432 390.819 227.815C391.463 228.183 392.176 228.367 392.958 228.367C393.74 228.367 394.453 228.183 395.097 227.815C395.757 227.432 396.278 226.887 396.661 226.182C397.045 225.461 397.236 224.626 397.236 223.675Z" fill="white"/>
</svg>
